<?xml version="1.0" encoding="UTF-8"?>
<svg id="Layer_1" data-name="Layer 1" xmlns="http://www.w3.org/2000/svg" viewBox="0 0 370.89 372.49">
  <defs>
    <style>
      .cls-1 {
        fill: #fa4e3e;
      }
    </style>
  </defs>
  <path class="cls-1" d="M92.32,184.65c47.53,0,86.69-35.93,91.76-82.12.38-3.35.57-6.75.57-10.2C184.65,41.34,143.3,0,92.33,0,61.68,0,34.53,14.93,17.73,37.91,6.58,53.16,0,71.97,0,92.32c0,51,41.33,92.32,92.32,92.32Z"/>
  <path class="cls-1" d="M184.65,277.15c0-3.64-.21-7.25-.64-10.79-5.33-45.9-44.35-81.54-91.69-81.54C41.33,184.83,0,226.17,0,277.15v92.32h93.81l-.04-.04c50.31-.78,90.88-41.77,90.88-92.29Z"/>
  <path class="cls-1" d="M280.18.04c-.8-.02-1.61-.03-2.41-.03s-1.61.02-2.41.03c-50.32,1.27-90.71,42.45-90.71,93.09,0,3.31.17,6.56.51,9.77,4.89,46.82,44.49,83.35,92.62,83.35-5.8,0-11.48.53-16.99,1.55-39.33,7.25-69.99,39.2-75.31,79.17-.54,4.05-.81,8.19-.81,12.4,0,51.42,41.69,93.12,93.12,93.12s93.12-41.7,93.12-93.12V93.12C370.89,42.48,330.48,1.31,280.18.04Z"/>
</svg>